#!OML:ASF F:\VICON\USERDATA\INSTALL\rory3\rory3.ASF
:FULLY-SPECIFIED
:DEGREES
90
root 0.662596433587459 17.845823341083793 14.18526163266916 -3.1533940970191776 -5.578875987413797 -2.516257645653161
lfemur -20.946867254071357 -3.2418682881348095 -20.765392324359794
ltibia 24.29295588716169
lfoot -5.089187226759358 -0.9557696035886282
ltoes 0.9619240248183254
rfemur 3.688040939468607 2.9168869782800475 24.57488929621355
rtibia 58.38025182945171
rfoot 11.668217338682254 1.5212496666386581
rtoes 6.855599070690742
lowerback 9.169227852000889 3.1231167319366344 2.9666765981179926
upperback 0.22264737930166775 4.457216337281592 0.31055440949966595
thorax -4.847668315838689 2.150011342769143 -1.8562942032238556
lowerneck -16.550842048604725 -3.25931929343918 -1.565696409295377
upperneck 20.93703274282096 -4.360922346536626 1.31083993897811
head 9.402011376218478 -2.023074075585741 0.12149333819851335
lclavicle -2.7563041558568243e-15 1.6722472214133435e-16
lhumerus -40.240342622688985 9.259183729998556 80.67162306173239
lradius 17.736656330889772
lwrist -0.21276617852854507
lhand -25.367458903182175 23.709406123682456
lfingers 7.12502
lthumb 1.1567659753580821 53.67597511811576
rclavicle -2.7563041558568243e-15 1.6722472214133435e-16
rhumerus -24.95109052088198 -14.669841950712241 -81.67653057251164
rradius 28.35073923521907
rwrist 3.1438020952775605
rhand -18.128436338706294 22.66307307884956
rfingers 7.12502
rthumb 8.146281818323233 -7.157250274792464
91
root 0.7230746805721652 17.91086675939629 14.031952067168865 -3.669960695885405 -5.662640598910666 -1.0690390462087485
lfemur -17.531936256911834 -3.051119268495668 -23.060422867620257
ltibia 25.739285097536943
lfoot -7.34622408515048 0.38468297099064097
ltoes 2.203095715894101
rfemur -2.8748010546207414 1.7737490818652342 22.450959700499155
rtibia 68.21978651451096
rfoot 13.630625933826447 -0.5108810484482262
rtoes 10.656457356663479
lowerback 9.559960901509053 2.9183857992179845 1.6527162424300095
upperback 0.3522190775895545 4.037583246771385 0.0808485920467128
thorax -4.959515403185465 1.9687923686246342 -1.269059618819362
lowerneck -16.500318035364156 -3.1196919985711933 -1.5852019009779916
upperneck 21.02151016055284 -4.150207335445307 1.2121105344523744
head 9.424186144909806 -1.9379291779966716 0.13040495141827405
lclavicle -2.4654226455378505e-15 4.350279098254068e-16
lhumerus -38.987446524603634 8.168418683371016 81.17301750251033
lradius 18.62658836600496
lwrist 1.2158165887431007
lhand -25.980207089008 23.199836451653464
lfingers 7.12502
lthumb 0.5649729905516849 53.163335273025154
rclavicle -2.4654226455378505e-15 4.350279098254068e-16
rhumerus -25.55685575379126 -15.588939180476935 -81.48562628366653
rradius 27.618325583139224
rwrist 4.327428672109802
rhand -17.757242374197947 22.25977636401391
rfingers 7.12502
rthumb 8.504518997423354 -7.546281618786247
92
root 0.766100150679184 17.955138990211704 13.755964669397404 -4.047712153790259 -5.5504461279648805 0.09844064477248171
lfemur -14.100257735573791 -3.1335860831374376 -24.96676846146398
ltibia 26.0434497593822
lfoot -9.787394275039203 2.051104272509786
ltoes 2.868346280873219
rfemur -9.851343917139632 0.670398432628903 20.965678314738568
rtibia 75.60161769046974
rfoot 11.3425067447574 -2.5818857880241612
rtoes 12.06673188809221
lowerback 9.941162291846846 2.5538078764313257 0.4726799114335325
upperback 0.4945696052894686 3.420717099010125 -0.03462151287251913
thorax -5.054241907701763 1.6890249991866704 -0.6495102369968976
lowerneck -16.4128202802128 -2.964998735922432 -1.6352610487352686
upperneck 21.1032355629063 -3.906883533381827 1.061730580671076
head 9.437002575024508 -1.8436141918897917 0.13186692001606923
lclavicle -2.307971145481543e-15 5.800872315902086e-16
lhumerus -37.31313715411374 6.648506206792711 81.78241306545402
lradius 19.588906036944337
lwrist 2.376690077804073
lhand -26.644278471019824 22.70593506159439
lfingers 7.12502
lthumb -0.07639504785833728 52.668784376939094
rclavicle -2.3079711454815425e-15 5.800872315902086e-16
rhumerus -26.08282548539958 -16.378763201605963 -81.30640320847785
rradius 26.901735589303424
rwrist 5.221085128608449
rhand -17.439718852788996 21.912059088308055
rfingers 7.12502
rthumb 8.810954077501899 -7.881226875441303
93
root 0.7855393397454121 17.976169465698085 12.941119003461928 -4.257859467184196 -5.152424629840644 0.8886514364621108
lfemur -11.09205691867418 -3.293852130839815 -26.488098724522363
ltibia 25.605559720565232
lfoot -12.119162682361145 3.3475903536965603
ltoes 3.0320926652069313
rfemur -16.602035255354068 -0.2581314095339442 20.054002287947085
rtibia 78.61901545248179
rfoot 6.092046140956347 -4.3184362457096945
rtoes 11.10993404437916
lowerback 10.222567909959215 2.0240233843484265 -0.5469613235080228
upperback 0.6111712662243183 2.6050506480003977 -0.03259159132102685
thorax -5.1168040502777385 1.308873481222256 -0.05022854983146674
lowerneck -16.331593551683422 -2.8369147243939485 -1.7355790199693208
upperneck 21.188010013205147 -3.695976045581547 0.9067831212019719
head 9.451303165736853 -1.7650292415308984 0.13344305456177968
lclavicle -2.4659504660850585e-15 4.3462467207237073e-16
lhumerus -35.421792851838944 4.705491338429842 82.34718132941113
lradius 20.564485188534356
lwrist 3.096161580196813
lhand -27.13997825242704 22.47560015632213
lfingers 7.12502
lthumb -0.5551395159475984 52.44075762457224
rclavicle -2.4659504660850585e-15 4.3462467207237073e-16
rhumerus -26.645628295414223 -17.043106742492725 -81.16509356369521
rradius 26.305221329160812
rwrist 5.5705858275686495
rhand -17.209526357542522 21.700387199680794
rfingers 7.12502
rthumb 9.03309630161616 -8.0824530921377
94
root 0.8059571565311057 17.985030711749225 12.90838242856201 -4.243466500298579 -4.279100186813142 1.6405040088853493
lfemur -7.582188275295508 -3.302236200713983 -27.487365506680646
ltibia 25.44748945014127
lfoot -13.797821375650681 4.45856493336487
ltoes 3.3146447130204444
rfemur -22.151708172642984 -0.8048823725519396 19.710095128225074
rtibia 77.9135318797382
rfoot 0.6385124801271225 -5.396904845256708
rtoes 8.900747100594106
lowerback 10.440354066412858 1.4475807320831973 -1.335638143883364
upperback 0.7076314010528645 1.749173647848945 0.08548752021777895
thorax -5.130950741836938 0.9049889482091512 0.6816495860314304
lowerneck -16.232891740616758 -2.744482206883892 -1.8627269379382214
upperneck 21.27305314699564 -3.5279498538690754 0.8083170922452102
head 9.467781841587765 -1.7065740801836904 0.15238913386732714
lclavicle -2.056301332310998e-15 8.119034294685682e-16
lhumerus -33.00854243009536 2.681504578326164 82.84334044260225
lradius 21.889966092914804
lwrist 3.646788000847875
lhand -27.325357606599045 22.644809650362745
lfingers 7.12502
lthumb -0.7341821317245192 52.61401392916638
rclavicle -2.056301332310998e-15 8.119034294685681e-16
rhumerus -27.16471295622066 -17.26348216847079 -80.93296095322779
rradius 26.062897058458045
rwrist 5.532160766813853
rhand -17.021591067666336 21.79990603163427
rfingers 7.12502
rthumb 9.214450189556365 -7.975983220337341
